HIERARCHY
ROOT center
{
	OFFSET 0.0 0.0 0.0
	CHANNELS 6 Xposition Yposition Zposition Zrotation Yrotation Xrotation
	JOINT left_hip
	{
		OFFSET 0.0 0.0 0.0
		CHANNELS 3 Zrotation Yrotation Xrotation
		JOINT left_knee
		{
			OFFSET 6.200740 -8.542875 -1.777666
			CHANNELS 3 Zrotation Yrotation Xrotation
			JOINT left_ankle
			{
				OFFSET 4.613243 -40.507163 0.769901
				CHANNELS 3 Zrotation Yrotation Xrotation
				JOINT left_feet
				{
					OFFSET -2.085879 -44.467047 -4.218270
					CHANNELS 3 Zrotation Yrotation Xrotation
					End Site
					{
						OFFSET 4.610293 -6.193332 12.231667
					}
				}
			}
		}
	}
	JOINT right_hip
	{
		OFFSET 0.0 0.0 0.0
		CHANNELS 3 Zrotation Yrotation Xrotation
		JOINT right_knee
		{
			OFFSET -6.371558 -9.366292 -1.433300
			CHANNELS 3 Zrotation Yrotation Xrotation
			JOINT right_ankle
			{
				OFFSET -4.731283 -40.381934 -0.497834
				CHANNELS 3 Zrotation Yrotation Xrotation
				JOINT right_feet
				{
					OFFSET 2.501016 -43.806312 -3.862191
					CHANNELS 3 Zrotation Yrotation Xrotation
					End Site
					{
						OFFSET -4.281420 -6.775345 13.029640
					}
				}
			}
		}
	}
	JOINT spine1
	{
		OFFSET 0.0 0.0 0.0
		CHANNELS 3 Zrotation Yrotation Xrotation
		JOINT spine2
		{
			OFFSET 0.482130 13.042953 -4.896684
			CHANNELS 3 Zrotation Yrotation Xrotation
			JOINT neck
			{
				OFFSET 0.489323 13.961032 4.099137
				CHANNELS 3 Zrotation Yrotation Xrotation
				JOINT head1
				{
					OFFSET -0.299576 5.748688 0.621923
					CHANNELS 3 Zrotation Yrotation Xrotation
					JOINT head2
					{
						OFFSET -1.357587 21.053258 -3.261892
						CHANNELS 3 Zrotation Yrotation Xrotation
						End Site
						{
							OFFSET 1.017402 8.551723 5.173670
						}
					}
				}
				JOINT left_armpit
				{
					OFFSET -0.299576 5.748688 0.621923
					CHANNELS 3 Zrotation Yrotation Xrotation
					JOINT left_shoulder
					{
						OFFSET 7.533634 11.750111 -1.219851
						CHANNELS 3 Zrotation Yrotation Xrotation
						JOINT left_elbow
						{
							OFFSET 12.099108 4.255844 -3.075159
							CHANNELS 3 Zrotation Yrotation Xrotation
							JOINT left_wrist
							{
								OFFSET 26.500344 -1.774743 -2.204436
								CHANNELS 3 Zrotation Yrotation Xrotation
								JOINT left_hand
								{
									OFFSET 0.000000 0.000000 0.000000
									CHANNELS 3 Zrotation Yrotation Xrotation
									JOINT left_thumb1
									{
										OFFSET 26.962896 1.406068 -0.671098
										CHANNELS 3 Zrotation Yrotation Xrotation
										JOINT left_thumb2
										{
											OFFSET 4.153167 -1.632183 3.055869
											CHANNELS 3 Zrotation Yrotation Xrotation
											JOINT left_thumb3
											{
												OFFSET 1.930838 -1.130749 2.484268
												CHANNELS 3 Zrotation Yrotation Xrotation
												JOINT left_thumb4
												{
													OFFSET 2.373304 -1.263538 1.859181
													CHANNELS 3 Zrotation Yrotation Xrotation
													End Site
													{
														OFFSET 1.862364 -0.895636 1.036186
													}
												}
											}
										}
									}
									JOINT left_index1
									{
										OFFSET 26.962896 1.406068 -0.671098
										CHANNELS 3 Zrotation Yrotation Xrotation
										JOINT left_index2
										{
											OFFSET 9.609658 0.400019 2.428782
											CHANNELS 3 Zrotation Yrotation Xrotation
											JOINT left_index3
											{
												OFFSET 4.327103 0.142592 0.173778
												CHANNELS 3 Zrotation Yrotation Xrotation
												JOINT left_index4
												{
													OFFSET 2.207807 -0.581852 -0.006276
													CHANNELS 3 Zrotation Yrotation Xrotation
													End Site
													{
														OFFSET 1.976887 -0.317216 -0.096828
													}
												}
											}
										}
									}
									JOINT left_middle1
									{
										OFFSET 26.962896 1.406068 -0.671098
										CHANNELS 3 Zrotation Yrotation Xrotation
										JOINT left_middle2
										{
											OFFSET 9.372310 0.575283 0.061440
											CHANNELS 3 Zrotation Yrotation Xrotation
											JOINT left_middle3
											{
												OFFSET 4.546081 0.065035 -0.459353
												CHANNELS 3 Zrotation Yrotation Xrotation
												JOINT left_middle4
												{
													OFFSET 2.264710 -0.991162 -0.003467
													CHANNELS 3 Zrotation Yrotation Xrotation
													End Site
													{
														OFFSET 1.942948 -0.752183 -0.034227
													}
												}
											}
										}
									}
									JOINT left_ring1
									{
										OFFSET 26.962896 1.406068 -0.671098
										CHANNELS 3 Zrotation Yrotation Xrotation
										JOINT left_ring2
										{
											OFFSET 8.921974 0.292351 -1.782636
											CHANNELS 3 Zrotation Yrotation Xrotation
											JOINT left_ring3
											{
												OFFSET 3.837168 -0.075040 -0.911359
												CHANNELS 3 Zrotation Yrotation Xrotation
												JOINT left_ring4
												{
													OFFSET 2.003265 -1.223661 -0.177242
													CHANNELS 3 Zrotation Yrotation Xrotation
													End Site
													{
														OFFSET 1.617845 -1.056094 -0.123004
													}
												}
											}
										}
									}
									JOINT left_little1
									{
										OFFSET 26.962896 1.406068 -0.671098
										CHANNELS 3 Zrotation Yrotation Xrotation
										JOINT left_little2
										{
											OFFSET 7.996423 -0.141709 -3.352163
											CHANNELS 3 Zrotation Yrotation Xrotation
											JOINT left_little3
											{
												OFFSET 2.966905 -0.512326 -1.314375
												CHANNELS 3 Zrotation Yrotation Xrotation
												JOINT left_little4
												{
													OFFSET 1.448264 -0.745369 -0.401906
													CHANNELS 3 Zrotation Yrotation Xrotation
													End Site
													{
														OFFSET 1.235326 -0.840747 -0.135808
													}
												}
											}
										}
									}
								}
							}
						}
					}
				}
				JOINT right_armpit
				{
					OFFSET -0.299576 5.748688 0.621923
					CHANNELS 3 Zrotation Yrotation Xrotation
					JOINT right_shoulder
					{
						OFFSET -8.761585 11.520707 -1.766609
						CHANNELS 3 Zrotation Yrotation Xrotation
						JOINT right_elbow
						{
							OFFSET -11.292308 4.505236 -1.844279
							CHANNELS 3 Zrotation Yrotation Xrotation
							JOINT right_wrist
							{
								OFFSET -26.942314 -1.646741 -3.160184
								CHANNELS 3 Zrotation Yrotation Xrotation
								JOINT right_hand
								{
									OFFSET 0.000000 0.000000 0.000000
									CHANNELS 3 Zrotation Yrotation Xrotation
									JOINT right_thumb1
									{
										OFFSET -27.665901 0.936706 -0.440006
										CHANNELS 3 Zrotation Yrotation Xrotation
										JOINT right_thumb2
										{
											OFFSET -3.762597 -1.862880 3.359071
											CHANNELS 3 Zrotation Yrotation Xrotation
											JOINT right_thumb3
											{
												OFFSET -1.980525 -1.096769 2.691028
												CHANNELS 3 Zrotation Yrotation Xrotation
												JOINT right_thumb4
												{
													OFFSET -2.493186 -1.340018 2.120502
													CHANNELS 3 Zrotation Yrotation Xrotation
													End Site
													{
														OFFSET -2.080849 -1.087557 1.107410
													}
												}
											}
										}
									}
									JOINT right_index1
									{
										OFFSET -27.665901 0.936706 -0.440006
										CHANNELS 3 Zrotation Yrotation Xrotation
										JOINT right_index2
										{
											OFFSET -9.679284 -0.016601 2.570403
											CHANNELS 3 Zrotation Yrotation Xrotation
											JOINT right_index3
											{
												OFFSET -4.537293 -0.059471 0.173565
												CHANNELS 3 Zrotation Yrotation Xrotation
												JOINT right_index4
												{
													OFFSET -2.339291 -0.745366 0.048360
													CHANNELS 3 Zrotation Yrotation Xrotation
													End Site
													{
														OFFSET -2.014867 -0.430677 -0.022855
													}
												}
											}
										}
									}
									JOINT right_middle1
									{
										OFFSET -27.665901 0.936706 -0.440006
										CHANNELS 3 Zrotation Yrotation Xrotation
										JOINT right_middle2
										{
											OFFSET -9.456882 0.015018 -0.036190
											CHANNELS 3 Zrotation Yrotation Xrotation
											JOINT right_middle3
											{
												OFFSET -4.848254 -0.221590 -0.396413
												CHANNELS 3 Zrotation Yrotation Xrotation
												JOINT right_middle4
												{
													OFFSET -2.368631 -1.162251 0.066445
													CHANNELS 3 Zrotation Yrotation Xrotation
													End Site
													{
														OFFSET -1.912223 -0.902724 0.021151
													}
												}
											}
										}
									}
									JOINT right_ring1
									{
										OFFSET -27.665901 0.936706 -0.440006
										CHANNELS 3 Zrotation Yrotation Xrotation
										JOINT right_ring2
										{
											OFFSET -8.938221 -0.394077 -1.891433
											CHANNELS 3 Zrotation Yrotation Xrotation
											JOINT right_ring3
											{
												OFFSET -4.004170 -0.324089 -0.945747
												CHANNELS 3 Zrotation Yrotation Xrotation
												JOINT right_ring4
												{
													OFFSET -2.148023 -1.424283 -0.098780
													CHANNELS 3 Zrotation Yrotation Xrotation
													End Site
													{
														OFFSET -1.606797 -1.117370 -0.084067
													}
												}
											}
										}
									}
									JOINT right_little1
									{
										OFFSET -27.665901 0.936706 -0.440006
										CHANNELS 3 Zrotation Yrotation Xrotation
										JOINT right_little2
										{
											OFFSET -7.991639 -0.944547 -3.585630
											CHANNELS 3 Zrotation Yrotation Xrotation
											JOINT right_little3
											{
												OFFSET -2.982212 -0.735586 -1.248606
												CHANNELS 3 Zrotation Yrotation Xrotation
												JOINT right_little4
												{
													OFFSET -1.553729 -0.919973 -0.376087
													CHANNELS 3 Zrotation Yrotation Xrotation
													End Site
													{
														OFFSET -1.216178 -0.944945 -0.055960
													}
												}
											}
										}
									}
								}
							}
						}
					}
				}
			}
		}
	}
}
MOTION
Frames: 4
Frame Time: 0.033333
4.780647 15.311687 277.711613 0.0 0.0 180.0 0.180219 -9.568078 -176.283885 0.600584 -5.301440 -12.156900 1.478804 -5.259820 9.324910 -0.000000 -0.000000 2.879868 0.180219 -9.568078 -176.283885 2.389561 5.034856 2.803774 2.110070 5.392142 -4.998833 -0.000000 -0.000000 13.454957 0.180219 -9.568078 -176.283885 0.414782 0.527687 -0.402863 1.236629 0.306631 -0.986407 0.896492 0.354023 -0.782397 -3.776505 -0.386698 2.669425 0.896492 0.354023 -0.782397 15.754471 5.082254 -1.742308 56.311241 7.226763 7.641233 17.204565 7.362167 1.373097 -0.945168 -9.182582 -2.206875 0.000000 0.000000 0.000000 3.520461 -29.144201 -13.627874 -2.677232 -12.866339 -3.440630 -1.125635 -0.000000 0.000000 0.000000 0.000000 0.000000 15.926472 -2.841872 -3.592257 4.138805 -0.000000 -0.000000 1.813728 -0.000000 -0.000000 0.000000 0.000000 0.000000 9.485590 -3.475606 -2.925243 6.163601 -0.000000 -0.000000 2.710975 -0.000000 -0.000000 0.000000 0.000000 0.000000 -1.888034 -2.007629 -3.065383 2.632246 -0.000000 -0.000000 1.545983 -0.000000 -0.000000 0.000000 0.000000 0.000000 -11.401746 -2.806396 -5.738634 -2.841744 -0.000000 0.000000 -0.472292 -0.000000 0.000000 0.896492 0.354023 -0.782397 -10.549159 0.983171 -0.856924 -66.218353 -0.927556 -0.452239 -7.890716 -13.105599 1.144261 2.403512 -7.751450 -2.152699 0.000000 0.000000 0.000000 -6.344365 23.073181 -14.336442 -0.060761 10.637379 -4.816530 0.226223 -0.000000 -0.000000 0.000000 0.000000 0.000000 -18.641932 3.601277 -3.411464 -5.156129 -0.000000 0.000000 -1.982601 -0.000000 0.000000 0.000000 0.000000 0.000000 -10.485251 2.709888 -1.593959 -4.208715 -0.000000 0.000000 -1.590896 -0.000000 0.000000 0.000000 0.000000 0.000000 1.426567 -0.919748 -0.766071 -0.778404 -0.000000 0.000000 0.000000 -0.000000 0.000000 0.000000 0.000000 0.000000 9.037530 -4.133527 -3.049205 0.513115 -0.000000 -0.000000 -0.418104 -0.000000 0.000000
4.766868 15.053954 277.558803 0.0 0.0 180.0 0.483835 -8.693973 -175.493916 0.330267 -5.066099 -13.533151 1.358827 -4.928810 10.452512 -0.000000 -0.000000 3.949056 0.483835 -8.693973 -175.493916 1.750050 5.191998 2.000157 2.570214 5.516052 -4.786821 -0.000000 -0.000000 12.071987 0.483835 -8.693973 -175.493916 0.428877 0.511769 -0.386630 1.250287 0.291344 -0.984369 0.913440 0.339335 -0.774215 -3.730557 0.324442 1.736750 0.913440 0.339335 -0.774215 15.984221 5.931500 -1.892799 55.641510 6.610994 6.876426 16.691808 5.220691 0.736888 0.596831 -8.618063 -2.253284 0.000000 0.000000 0.000000 1.304084 -24.240798 -10.909759 -2.739169 -9.590782 -2.298491 -1.097449 -0.000000 0.000000 0.000000 0.000000 0.000000 14.965021 -0.231747 -1.684438 3.880223 -0.000000 -0.000000 1.736691 -0.000000 -0.000000 0.000000 0.000000 0.000000 8.464868 -1.354315 -1.865954 4.963842 -0.000000 -0.000000 2.216589 -0.000000 -0.000000 0.000000 0.000000 0.000000 -3.248336 2.758502 -1.235405 1.875158 -0.000000 -0.000000 1.258626 -0.000000 -0.000000 0.000000 0.000000 0.000000 -13.443452 -1.907424 -5.965047 -3.418108 -0.000000 0.000000 -0.723228 -0.000000 0.000000 0.913440 0.339335 -0.774215 -10.495726 -0.808399 -0.666592 -66.654834 -1.487581 1.691901 -7.656644 -6.554030 0.309963 1.105925 -11.044775 -1.737560 0.000000 0.000000 0.000000 -4.350371 22.296443 -12.230218 0.744260 9.689388 -3.826272 0.407235 -0.000000 -0.000000 0.000000 0.000000 0.000000 -16.484156 0.305711 -1.785829 -5.467198 -0.000000 0.000000 -2.188818 -0.000000 0.000000 0.000000 0.000000 0.000000 -9.983451 -1.218862 -0.213527 -4.923680 -0.000000 0.000000 -1.911440 -0.000000 0.000000 0.000000 0.000000 0.000000 -1.506422 -3.706703 0.530679 -2.942570 -0.000000 0.000000 -1.200823 -0.000000 0.000000 0.000000 0.000000 0.000000 7.175362 -3.481086 -2.437181 0.144599 -0.000000 -0.000000 -0.522310 -0.000000 0.000000
5.181627 14.874390 277.417373 0.0 0.0 180.0 0.204233 -5.896833 -174.755840 1.675562 -5.398278 -15.085756 0.870966 -5.416273 10.365413 -0.000000 -0.000000 6.160091 0.204233 -5.896833 -174.755840 2.805098 4.771893 3.006470 2.659597 5.439358 -8.813932 -0.000000 -0.000000 12.297775 0.204233 -5.896833 -174.755840 0.426278 0.434380 -0.400141 1.243658 0.215536 -0.971953 0.897109 0.263358 -0.781145 -2.823971 -0.137698 1.279804 0.897109 0.263358 -0.781145 15.862440 1.692824 -1.839691 56.556408 6.307551 6.290586 16.271751 6.083985 0.867365 1.584484 -13.323497 -2.665952 0.000000 0.000000 0.000000 1.429651 -25.130825 -11.669721 -2.897470 -10.222728 -2.447378 -1.130473 -0.000000 0.000000 0.000000 0.000000 0.000000 15.079467 0.555842 -1.006432 3.752518 -0.000000 -0.000000 1.732587 -0.000000 -0.000000 0.000000 0.000000 0.000000 7.806512 -4.297263 -2.300320 3.647389 -0.000000 -0.000000 1.773961 -0.000000 -0.000000 0.000000 0.000000 0.000000 -3.899500 -0.965685 -2.536847 1.590128 -0.000000 -0.000000 1.248125 -0.000000 -0.000000 0.000000 0.000000 0.000000 -17.014125 2.395312 -6.820642 -4.540074 -0.000000 0.000000 -1.070743 -0.000000 0.000000 0.897109 0.263358 -0.781145 -11.312321 1.951193 -0.781892 -65.171376 -0.488592 -1.358801 -8.695217 -14.913667 1.621987 0.422112 -8.928740 -1.832357 0.000000 0.000000 0.000000 -5.603137 24.036141 -13.792504 0.669327 10.314926 -4.103126 0.415738 -0.000000 -0.000000 0.000000 0.000000 0.000000 -17.641917 2.611179 -2.596059 -5.089995 -0.000000 0.000000 -1.949878 -0.000000 0.000000 0.000000 0.000000 0.000000 -10.385713 0.840137 -0.900476 -4.591559 -0.000000 0.000000 -1.825533 -0.000000 0.000000 0.000000 0.000000 0.000000 -1.118764 -2.503665 -0.574464 -2.895309 -0.000000 0.000000 -1.221169 -0.000000 0.000000 0.000000 0.000000 0.000000 9.754547 -8.210331 -2.791580 1.055204 -0.000000 -0.000000 -0.217129 -0.000000 0.000000
5.559873 15.063237 277.398174 0.0 0.0 180.0 1.148434 -4.898338 -174.681895 1.312966 -7.026412 -15.263134 0.779101 -6.890728 10.602894 -0.000000 -0.000000 4.040089 1.148434 -4.898338 -174.681895 3.266214 5.915061 -3.915807 -0.101857 5.633616 -0.450998 -0.000000 -0.000000 8.390768 1.148434 -4.898338 -174.681895 0.423376 0.552553 -0.404016 1.214317 0.341489 -1.059405 0.864526 0.389507 -0.883270 -1.626389 2.303200 -2.330913 0.864526 0.389507 -0.883270 16.990169 1.858975 -1.973697 55.957889 5.993417 5.613270 14.106360 4.772804 0.292511 4.366713 -14.756130 -3.441610 0.000000 0.000000 0.000000 2.510449 -26.175482 -13.503986 -2.769440 -11.158429 -3.006076 -1.145141 -0.000000 0.000000 0.000000 0.000000 0.000000 14.530614 0.763401 -0.825073 3.976642 -0.000000 -0.000000 1.671188 -0.000000 -0.000000 0.000000 0.000000 0.000000 7.121157 -1.983677 -1.005533 3.525210 -0.000000 -0.000000 1.527558 -0.000000 -0.000000 0.000000 0.000000 0.000000 -3.394306 2.644160 -1.594355 1.979978 -0.000000 -0.000000 1.291168 -0.000000 -0.000000 0.000000 0.000000 0.000000 -13.514638 -1.193622 -5.939935 -3.670209 -0.000000 0.000000 -0.790026 -0.000000 0.000000 0.864526 0.389507 -0.883270 -13.887493 3.426893 -0.230058 -61.916426 -0.532248 -1.430719 -11.204357 -14.795125 2.223030 0.869617 -10.905520 -2.011620 0.000000 0.000000 0.000000 -6.934229 27.483058 -15.434242 0.926555 11.898672 -4.455472 0.563887 -0.000000 -0.000000 0.000000 0.000000 0.000000 -19.624776 8.739987 -5.810813 -5.300669 -0.000000 0.000000 -2.096343 -0.000000 0.000000 0.000000 0.000000 0.000000 -11.036374 3.900316 -2.925585 -4.760313 -0.000000 0.000000 -1.680342 -0.000000 0.000000 0.000000 0.000000 0.000000 -0.885172 2.002623 -1.507668 -2.500361 -0.000000 0.000000 -1.166261 -0.000000 0.000000 0.000000 0.000000 0.000000 11.090990 -12.397806 -2.500956 2.065890 -0.000000 -0.000000 0.349298 -0.000000 -0.000000
